# xmcd
#
# Track frame offsets:
#	150
#	18094
#	36283
#	51983
#	72085
#	86122
#	109093
#	125014
#	147897
#	170460
#
# Disc length: 2488 seconds
#
# Revision: 0
# Processed by: cddbd v1.5.2PL0 Copyright (c) Steve Scherf et al.
# Submitted via: dBpowerAMP V4.0
#
DISCID=8809b60a
DTITLE=Jay and The Techniques - Main Course
DYEAR=1900
DGENRE=Beach
TTITLE0=One Way To Do It
TTITLE1=Don't Ask Me To Forget
TTITLE2=What's A Matter Baby
TTITLE3=Fifty-Fifty Deal
TTITLE4=I Love To Sing The Songs (God Wants Me To Sing)
TTITLE5=Palm Of My Hand
TTITLE6=I'll Cry With You
TTITLE7=Why Does Everything Change
TTITLE8=Grass Ain't Always Greener
TTITLE9=Make Your Own Sweet Music
EXTD=
EXTT0=
EXTT1=
EXTT2=
EXTT3=
EXTT4=
EXTT5=
EXTT6=
EXTT7=
EXTT8=
EXTT9=
PLAYORDER=
